<svg xmlns="http://www.w3.org/2000/svg" viewBox="0 0 725.73 248.11"><defs><style>.cls-1{fill:#e2661a;}.cls-2{fill:#fad02c;}</style></defs><g id="Layer_2" data-name="Layer 2"><g id="Layer_1-2" data-name="Layer 1"><path class="cls-1" d="M478.32,79.39c-12.15,32.65-24,64.47-36.28,97.44l-22.67-56.12-26.32,56.22L374.6,130.6c-6.38-16.91-12.77-33.81-19.33-51.21h21.27c6.06,17.69,12.18,35.59,18.83,55,5.27-13.11,10-25,14.75-36.69-2.39-6.13-4.71-12.06-7.16-18.33h18c6.91,17,13.9,34.22,21.47,52.83,5.7-18.51,11-35.63,16.24-52.83Z"/><path class="cls-1" d="M258.69,175.14v-94h18v37.63h42.81V81.27h18.11v93.88H319.85V137.43h-43v37.71Z"/><path class="cls-1" d="M82.22,175.07V81.26h64.06V98.15H100.77v20.92h40.32v17.71H100.7v21.05h47.56v17.24Z"/><path class="cls-1" d="M231.9,152c2.47,5.41,4.78,10.5,7,15.45-15,12.34-46.31,13.16-63.62-4.69-16.73-17.25-17.25-49.83-.76-68.68C188.72,77.9,219.28,74.9,237,88.22c-2.22,5.39-4.47,10.88-6.73,16.38-20.62-9.92-32.16-8.94-41.89,3.36-9.32,11.78-9.21,30,.25,41.64C197.64,160.64,213.17,161.61,231.9,152Z"/><path class="cls-1" d="M0,81.16H63.31v17H40.53v77H22.1V98.57H0Z"/><path class="cls-1" d="M624.61,80.37v99.32l-67.19-60.55V175H539.08V76.63l66.54,60.92V80.38Z"/><path class="cls-1" d="M725.73,126.66v39.43c-15.82,13.14-48.92,15-68.06-1.72-18.52-16.16-17-48.22-5.41-65.19C667.89,76.27,701.78,76,721.51,87c-1.78,5.23-4.38,12-5.89,16.4,0,.11-.07.22-.11.32-9.76-4.17-17-5-25.55-5-13-.06-22.94,7.9-25.9,18.86-4.1,15.12-.35,28.45,10.33,35.28,10.35,6.61,21.42,7.07,33,3.36V144h-16V126.66Z"/><rect class="cls-1" x="495.3" y="81.14" width="18.16" height="94.01"/><polygon class="cls-2" points="421.52 248.11 22.77 248.11 22.77 202.17 35.77 202.17 35.77 235.11 408.52 235.11 408.52 166.97 421.52 166.97 421.52 248.11"/><polygon class="cls-2" points="427.52 67.66 414.52 67.66 414.52 14.49 36.5 14.49 36.5 54.73 23.5 54.73 23.5 0 427.52 0 427.52 67.66"/></g></g></svg>